PathFileType	3	(X/Y/Z)	D:\minhoCalibration\240510\subject5_KPNP\preferred\preferred18.trc
DataRate	CameraRate	NumFrames	NumMarkers	Units	OrigDataRate	OrigDataStartFrame	OrigNumFrames
200.0	200.0	15	10	mm	200.0	228	155	
Frame#	Time	Left_Ankle_Outer1			Left_Ankle_Inner1			Left_Knee_Outer1			Left_Knee_Inner1			Left_Wrist1			Right_Wrist1			Right_Knee_Inner1			Right_Knee_Outer1			Right_Ankle_Inner1			Right_Ankle_Outer1			
		X1	Y1	Z1	X2	Y2	Z2	X3	Y3	Z3	X4	Y4	Z4	X5	Y5	Z5	X6	Y6	Z6	X7	Y7	Z7	X8	Y8	Z8	X9	Y9	Z9	X10	Y10	Z10	
228	1.13	-110.29612	73.385719	-718.25995	-150.60838	92.457298	-688.59845	78.82029	513.32825	-633.58643	16.893183	502.17395	-560.117	3.8797841	939.8689	-842.02472	-97.018745	1165.9943	-611.37225	-151.916	968.52747	-145.43553	-140.27373	1058.5212	-171.03844	-617.08246	956.26764	-103.56169	-604.55145	1046.3969	-141.09236
229	1.135	-110.23837	73.599167	-718.11798	-150.54211	92.600967	-688.52838	78.621979	513.61768	-632.14172	16.381601	502.13336	-558.88263	1.9402447	939.21832	-841.13422	-95.797104	1166.4447	-611.24841	-149.76173	976.06519	-145.31294	-138.8409	1065.0461	-172.21208	-609.29401	968.76312	-56.057888	-599.51648	1058.2858	-97.496704
230	1.14	-110.2223	73.868805	-718.05835	-150.31131	93.118736	-688.40076	78.266113	514.03821	-630.68958	16.11339	502.33896	-557.8269	0.13969226	938.6142	-840.03809	-94.580566	1166.6794	-611.32513	-149.45583	983.20624	-146.0784	-139.28769	1071.0571	-173.80048	-596.90643	980.41663	-11.241849	-591.69025	1069.6685	-53.327816
231	1.145	-110.16145	74.133186	-717.91968	-150.19058	93.331688	-688.2771	77.993599	514.52039	-629.38983	15.696506	502.55316	-556.52277	-1.8466464	937.97363	-838.2605	-94.100456	1167.1108	-609.74432	-150.77753	989.50897	-147.84062	-141.37598	1076.3987	-175.86473	-581.18158	991.36951	36.966576	-580.66699	1080.4081	-9.0605497
232	1.15	-110.2038	74.417297	-717.85352	-150.4912	93.262192	-687.68799	77.556183	514.96515	-628.15796	15.378179	502.69067	-555.46857	-3.2079575	937.66937	-836.71527	-93.943497	1167.8334	-609.27899	-154.03896	995.19092	-149.95348	-145.93916	1081.3691	-177.68259	-562.75739	1001.1395	82.379959	-565.91425	1090.3318	34.734291
233	1.155	-110.23152	74.768196	-717.83594	-150.41025	93.221626	-687.75366	77.247635	515.55707	-627.17987	15.094287	502.92838	-554.34406	-3.7616735	937.82996	-835.34277	-94.322853	1168.2013	-608.71509	-158.31107	1000.3629	-151.8761	-152.02191	1085.7673	-179.76581	-538.8717	1011.8655	124.20155	-547.44849	1099.4843	76.875259
234	1.16	-110.12966	75.035065	-717.95764	-150.3419	93.400009	-687.36011	76.539833	515.85175	-626.01453	14.799459	503.06653	-553.21887	-4.4989729	937.89673	-832.90228	-95.07254	1169.8687	-607.08441	-163.85785	1004.1127	-152.43031	-160.3187	1089.3322	-181.27969	-509.88971	1020.074	161.94304	-524.91388	1107.1609	116.58858
235	1.165	-110.02551	75.253883	-717.86078	-150.13152	93.504768	-687.93842	75.331429	515.94873	-624.6886	13.971608	503.18246	-551.88135	-4.661767	938.54626	-830.69995	-96.211868	1171.1815	-606.50305	-170.5925	1008.0491	-151.8811	-168.96822	1092.2335	-182.76945	-476.28238	1026.4878	196.65498	-498.4129	1113.0664	152.33684
236	1.17	-109.82701	75.597038	-717.87146	-150.39857	93.790108	-687.16119	74.662094	516.38934	-623.59668	13.112872	503.35382	-550.36371	-5.1676946	939.10284	-826.51495	-97.896263	1172.6097	-604.37872	-177.81032	1012.5067	-151.34248	-177.64558	1095.7058	-184.06728	-446.34378	1032.2839	227.36288	-468.36081	1117.2765	182.14565
237	1.175	-109.43552	76.067055	-717.91693	-149.84836	94.233856	-687.66388	73.152672	516.55359	-621.88202	12.073922	503.61209	-548.53906	-4.7998857	939.61462	-822.30511	-99.886398	1174.0566	-603.76886	-184.42281	1016.11	-150.65581	-185.33647	1100.0809	-184.47942	-428.70239	1033.6898	233.8714	-446.98584	1122.6083	193.17715
238	1.18	-108.99937	76.722382	-717.86115	-149.45357	95.135185	-687.71991	71.540512	516.88068	-619.76892	10.841311	503.92538	-546.37305	-4.0569835	941.02118	-817.94183	-102.71445	1175.9601	-602.60718	-186.37148	1017.9078	-148.44141	-187.89684	1103.6965	-181.67905	-420.58725	1036.9806	236.93945	-440.41266	1127.0533	198.5157
239	1.185	-108.30808	77.368599	-717.88306	-148.96671	95.017952	-688.07605	69.846191	517.43872	-617.1673	8.9389181	504.27014	-543.60724	-3.1962724	941.71985	-812.69659	-106.29544	1178.1792	-598.34668	-184.54242	1020.1743	-146.57294	-185.25664	1106.519	-176.82704	-424.15381	1039.0162	236.31721	-439.48886	1130.9235	199.58122
240	1.19	-107.35581	78.239738	-717.76672	-148.80881	95.518707	-687.99347	67.568939	518.23047	-613.68176	6.7091532	504.90381	-540.57129	-1.7883774	942.26624	-807.73865	-109.86261	1178.4733	-598.62628	-182.56346	1022.2007	-144.97183	-180.52774	1108.3296	-173.10529	-429.00964	1038.561	235.577	-443.54855	1131.5929	199.40161
241	1.195	-106.12447	79.12735	-717.79315	-147.57425	96.13813	-688.87811	65.470421	519.10559	-609.68561	3.9672246	505.4776	-537.34045	-0.017545175	943.49463	-803.03363	-114.42163	1179.5488	-596.39349	-181.90498	1022.9811	-143.43016	-177.089	1108.948	-169.5993	-431.177	1036.0385	234.97574	-449.02118	1128.1118	199.04488
242	1.2	-104.84431	79.764473	-718.11047	-146.9933	96.269524	-688.23248	63.099384	520.05884	-604.92499	0.63511449	506.08594	-533.48865	2.2516901	944.92291	-798.87842	-119.07151	1180.1177	-595.09357	-182.45613	1023.2991	-142.32439	-174.47441	1107.9879	-166.17725	-431.83246	1033.0703	236.25018	-454.24207	1123.6121	198.61301
